<?xml version="1.0" standalone="no"?>
<!DOCTYPE svg PUBLIC "-//W3C//DTD SVG 20010904//EN"
 "http://www.w3.org/TR/2001/REC-SVG-20010904/DTD/svg10.dtd">
<svg version="1.0" xmlns="http://www.w3.org/2000/svg"
 width="487.000000pt" height="376.000000pt" viewBox="0 0 487.000000 376.000000"
 preserveAspectRatio="xMidYMid meet">

<g transform="translate(0.000000,376.000000) scale(0.100000,-0.100000)"
fill="#000000" stroke="none">
<path d="M1487 3523 c-4 -3 -7 -213 -7 -465 l0 -458 655 0 655 0 -2 463 -3
462 -646 3 c-355 1 -649 -1 -652 -5z m763 -503 l0 -170 -115 0 -115 0 0 170 0
170 115 0 115 0 0 -170z m434 -16 c3 -9 6 -80 6 -159 0 -132 -2 -145 -19 -155
-15 -7 -23 -6 -35 6 -13 12 -16 41 -16 154 0 76 3 145 6 154 3 9 16 16 29 16
13 0 26 -7 29 -16z"/>
<path d="M3260 2485 l0 -275 490 0 490 0 0 275 0 275 -490 0 -490 0 0 -275z
m730 -1 c0 -192 -3 -245 -12 -242 -10 4 -14 64 -16 246 -2 211 0 242 13 242
13 0 15 -33 15 -246z m-80 -4 l0 -210 -290 0 -290 0 0 210 0 210 290 0 290 0
0 -210z m280 160 l0 -50 -75 0 -75 0 0 50 0 50 75 0 75 0 0 -50z m-42 -136
c12 -8 22 -22 22 -31 0 -21 -29 -53 -48 -53 -22 0 -52 30 -52 51 0 16 34 49
50 49 3 0 16 -7 28 -16z m-3 -150 c19 -20 16 -43 -7 -58 -21 -13 -51 2 -56 26
-3 16 23 48 38 48 5 0 16 -7 25 -16z"/>
<path d="M1480 1660 l0 -870 655 0 655 0 0 870 0 870 -655 0 -655 0 0 -870z
m1198 778 c9 -9 12 -70 12 -215 0 -190 -1 -203 -19 -213 -15 -7 -23 -6 -35 6
-13 13 -16 46 -16 205 0 112 4 198 10 210 12 22 30 25 48 7z"/>
<path d="M77 2233 c-4 -3 -7 -69 -7 -145 l0 -138 628 2 627 3 3 129 c2 86 -1
133 -9 142 -10 12 -113 14 -624 14 -336 0 -615 -3 -618 -7z m688 -67 c67 -67
22 -172 -72 -169 -50 1 -93 48 -93 99 0 81 108 127 165 70z m483 -55 l3 -61
-96 0 -95 0 0 58 c0 32 2 61 4 63 2 2 44 3 93 2 l88 -1 3 -61z m-900 -23 l3
-38 -100 0 -101 0 0 33 c0 19 3 37 7 41 4 4 48 5 98 4 l90 -3 3 -37z m747 -68
c3 -5 -3 -10 -14 -10 -12 0 -21 5 -21 10 0 6 6 10 14 10 8 0 18 -4 21 -10z
m55 0 c0 -5 -9 -10 -20 -10 -11 0 -20 5 -20 10 0 6 9 10 20 10 11 0 20 -4 20
-10z m50 0 c0 -5 -7 -10 -15 -10 -8 0 -15 5 -15 10 0 6 7 10 15 10 8 0 15 -4
15 -10z m50 0 c0 -5 -7 -10 -15 -10 -8 0 -15 5 -15 10 0 6 7 10 15 10 8 0 15
-4 15 -10z"/>
<path d="M654 2152 c-6 -4 -17 -18 -23 -30 -15 -29 1 -77 30 -93 25 -13 24 3
-1 19 -13 8 -20 23 -20 42 0 17 9 39 20 50 20 20 16 27 -6 12z"/>
<path d="M2937 2153 c-4 -3 -7 -66 -7 -140 l0 -133 820 0 820 0 0 140 0 140
-813 0 c-448 0 -817 -3 -820 -7z m1033 -138 l0 -75 -220 0 -220 0 0 75 0 75
220 0 220 0 0 -75z m-604 30 c21 -32 7 -69 -30 -87 -55 -25 -104 51 -64 100 6
6 26 12 44 12 25 0 38 -7 50 -25z m858 9 c34 -33 4 -104 -44 -104 -26 0 -60
34 -60 62 0 49 69 78 104 42z"/>
<path d="M70 1278 c0 -369 4 -619 10 -628 8 -13 88 -15 605 -18 405 -2 602 1
615 8 20 10 20 23 20 630 l0 620 -625 0 -625 0 0 -612z m721 438 c214 -46 369
-235 369 -451 0 -276 -259 -501 -526 -457 -131 22 -269 113 -331 220 -83 141
-83 333 0 474 60 103 198 197 317 217 79 13 97 12 171 -3z m469 -961 l0 -56
-77 3 -78 3 -3 39 c-5 63 -1 66 83 66 l75 0 0 -55z"/>
<path d="M571 1620 c-174 -64 -278 -247 -241 -425 7 -33 21 -78 32 -99 33 -65
112 -141 181 -172 55 -26 73 -29 157 -29 88 0 101 3 162 33 287 141 281 546
-10 680 -78 36 -203 41 -281 12z m208 -96 c109 -32 191 -144 191 -259 0 -197
-216 -334 -388 -246 -102 52 -152 132 -152 243 0 132 68 224 193 264 57 17 93
17 156 -2z"/>
<path d="M2940 1315 l0 -515 810 0 810 0 0 515 0 515 -153 0 c-141 0 -155 -2
-172 -20 -18 -19 -31 -20 -485 -20 -454 0 -467 1 -485 20 -17 18 -31 20 -172
20 l-153 0 0 -515z m1430 370 l0 -35 -620 0 -620 0 0 35 0 35 620 0 620 0 0
-35z m-70 -450 l0 -335 -550 0 -550 0 0 335 0 335 550 0 550 0 0 -335z"/>
<path d="M3653 1313 c53 -2 141 -2 195 0 53 1 9 3 -98 3 -107 0 -151 -2 -97
-3z"/>
<path d="M2936 744 c-11 -28 -6 -81 8 -93 10 -8 231 -10 817 -9 l804 3 0 55 0
55 -811 3 c-734 2 -812 1 -818 -14z"/>
<path d="M1487 733 c-4 -3 -7 -32 -7 -64 l0 -58 58 -3 c36 -2 57 -7 58 -15 1
-7 2 -18 3 -24 0 -6 17 -9 39 -7 30 2 38 7 40 26 l3 22 449 0 449 0 3 -22 c3
-20 9 -23 43 -23 34 0 40 3 43 23 3 20 9 22 63 22 l60 0 -3 63 -3 62 -646 3
c-355 1 -649 -1 -652 -5z"/>
</g>
</svg>
<?xml version="1.0" standalone="no"?>
<!DOCTYPE svg PUBLIC "-//W3C//DTD SVG 20010904//EN"
 "http://www.w3.org/TR/2001/REC-SVG-20010904/DTD/svg10.dtd">
<svg version="1.0" xmlns="http://www.w3.org/2000/svg"
 width="487.000000pt" height="376.000000pt" viewBox="0 0 487.000000 376.000000"
 preserveAspectRatio="xMidYMid meet">

<g transform="translate(0.000000,376.000000) scale(0.100000,-0.100000)"
fill="#000000" stroke="none">
<path d="M1487 3523 c-4 -3 -7 -213 -7 -465 l0 -458 655 0 655 0 -2 463 -3
462 -646 3 c-355 1 -649 -1 -652 -5z m763 -503 l0 -170 -115 0 -115 0 0 170 0
170 115 0 115 0 0 -170z m434 -16 c3 -9 6 -80 6 -159 0 -132 -2 -145 -19 -155
-15 -7 -23 -6 -35 6 -13 12 -16 41 -16 154 0 76 3 145 6 154 3 9 16 16 29 16
13 0 26 -7 29 -16z"/>
<path d="M3260 2485 l0 -275 490 0 490 0 0 275 0 275 -490 0 -490 0 0 -275z
m730 -1 c0 -192 -3 -245 -12 -242 -10 4 -14 64 -16 246 -2 211 0 242 13 242
13 0 15 -33 15 -246z m-80 -4 l0 -210 -290 0 -290 0 0 210 0 210 290 0 290 0
0 -210z m280 160 l0 -50 -75 0 -75 0 0 50 0 50 75 0 75 0 0 -50z m-42 -136
c12 -8 22 -22 22 -31 0 -21 -29 -53 -48 -53 -22 0 -52 30 -52 51 0 16 34 49
50 49 3 0 16 -7 28 -16z m-3 -150 c19 -20 16 -43 -7 -58 -21 -13 -51 2 -56 26
-3 16 23 48 38 48 5 0 16 -7 25 -16z"/>
<path d="M1480 1660 l0 -870 655 0 655 0 0 870 0 870 -655 0 -655 0 0 -870z
m1198 778 c9 -9 12 -70 12 -215 0 -190 -1 -203 -19 -213 -15 -7 -23 -6 -35 6
-13 13 -16 46 -16 205 0 112 4 198 10 210 12 22 30 25 48 7z"/>
<path d="M77 2233 c-4 -3 -7 -69 -7 -145 l0 -138 628 2 627 3 3 129 c2 86 -1
133 -9 142 -10 12 -113 14 -624 14 -336 0 -615 -3 -618 -7z m688 -67 c67 -67
22 -172 -72 -169 -50 1 -93 48 -93 99 0 81 108 127 165 70z m483 -55 l3 -61
-96 0 -95 0 0 58 c0 32 2 61 4 63 2 2 44 3 93 2 l88 -1 3 -61z m-900 -23 l3
-38 -100 0 -101 0 0 33 c0 19 3 37 7 41 4 4 48 5 98 4 l90 -3 3 -37z m747 -68
c3 -5 -3 -10 -14 -10 -12 0 -21 5 -21 10 0 6 6 10 14 10 8 0 18 -4 21 -10z
m55 0 c0 -5 -9 -10 -20 -10 -11 0 -20 5 -20 10 0 6 9 10 20 10 11 0 20 -4 20
-10z m50 0 c0 -5 -7 -10 -15 -10 -8 0 -15 5 -15 10 0 6 7 10 15 10 8 0 15 -4
15 -10z m50 0 c0 -5 -7 -10 -15 -10 -8 0 -15 5 -15 10 0 6 7 10 15 10 8 0 15
-4 15 -10z"/>
<path d="M654 2152 c-6 -4 -17 -18 -23 -30 -15 -29 1 -77 30 -93 25 -13 24 3
-1 19 -13 8 -20 23 -20 42 0 17 9 39 20 50 20 20 16 27 -6 12z"/>
<path d="M2937 2153 c-4 -3 -7 -66 -7 -140 l0 -133 820 0 820 0 0 140 0 140
-813 0 c-448 0 -817 -3 -820 -7z m1033 -138 l0 -75 -220 0 -220 0 0 75 0 75
220 0 220 0 0 -75z m-604 30 c21 -32 7 -69 -30 -87 -55 -25 -104 51 -64 100 6
6 26 12 44 12 25 0 38 -7 50 -25z m858 9 c34 -33 4 -104 -44 -104 -26 0 -60
34 -60 62 0 49 69 78 104 42z"/>
<path d="M70 1278 c0 -369 4 -619 10 -628 8 -13 88 -15 605 -18 405 -2 602 1
615 8 20 10 20 23 20 630 l0 620 -625 0 -625 0 0 -612z m721 438 c214 -46 369
-235 369 -451 0 -276 -259 -501 -526 -457 -131 22 -269 113 -331 220 -83 141
-83 333 0 474 60 103 198 197 317 217 79 13 97 12 171 -3z m469 -961 l0 -56
-77 3 -78 3 -3 39 c-5 63 -1 66 83 66 l75 0 0 -55z"/>
<path d="M571 1620 c-174 -64 -278 -247 -241 -425 7 -33 21 -78 32 -99 33 -65
112 -141 181 -172 55 -26 73 -29 157 -29 88 0 101 3 162 33 287 141 281 546
-10 680 -78 36 -203 41 -281 12z m208 -96 c109 -32 191 -144 191 -259 0 -197
-216 -334 -388 -246 -102 52 -152 132 -152 243 0 132 68 224 193 264 57 17 93
17 156 -2z"/>
<path d="M2940 1315 l0 -515 810 0 810 0 0 515 0 515 -153 0 c-141 0 -155 -2
-172 -20 -18 -19 -31 -20 -485 -20 -454 0 -467 1 -485 20 -17 18 -31 20 -172
20 l-153 0 0 -515z m1430 370 l0 -35 -620 0 -620 0 0 35 0 35 620 0 620 0 0
-35z m-70 -450 l0 -335 -550 0 -550 0 0 335 0 335 550 0 550 0 0 -335z"/>
<path d="M3653 1313 c53 -2 141 -2 195 0 53 1 9 3 -98 3 -107 0 -151 -2 -97
-3z"/>
<path d="M2936 744 c-11 -28 -6 -81 8 -93 10 -8 231 -10 817 -9 l804 3 0 55 0
55 -811 3 c-734 2 -812 1 -818 -14z"/>
<path d="M1487 733 c-4 -3 -7 -32 -7 -64 l0 -58 58 -3 c36 -2 57 -7 58 -15 1
-7 2 -18 3 -24 0 -6 17 -9 39 -7 30 2 38 7 40 26 l3 22 449 0 449 0 3 -22 c3
-20 9 -23 43 -23 34 0 40 3 43 23 3 20 9 22 63 22 l60 0 -3 63 -3 62 -646 3
c-355 1 -649 -1 -652 -5z"/>
</g>
</svg>
<?xml version="1.0" standalone="no"?>
<!DOCTYPE svg PUBLIC "-//W3C//DTD SVG 20010904//EN"
 "http://www.w3.org/TR/2001/REC-SVG-20010904/DTD/svg10.dtd">
<svg version="1.0" xmlns="http://www.w3.org/2000/svg"
 width="487.000000pt" height="376.000000pt" viewBox="0 0 487.000000 376.000000"
 preserveAspectRatio="xMidYMid meet">

<g transform="translate(0.000000,376.000000) scale(0.100000,-0.100000)"
fill="#000000" stroke="none">
<path d="M1487 3523 c-4 -3 -7 -213 -7 -465 l0 -458 655 0 655 0 -2 463 -3
462 -646 3 c-355 1 -649 -1 -652 -5z m763 -503 l0 -170 -115 0 -115 0 0 170 0
170 115 0 115 0 0 -170z m434 -16 c3 -9 6 -80 6 -159 0 -132 -2 -145 -19 -155
-15 -7 -23 -6 -35 6 -13 12 -16 41 -16 154 0 76 3 145 6 154 3 9 16 16 29 16
13 0 26 -7 29 -16z"/>
<path d="M3260 2485 l0 -275 490 0 490 0 0 275 0 275 -490 0 -490 0 0 -275z
m730 -1 c0 -192 -3 -245 -12 -242 -10 4 -14 64 -16 246 -2 211 0 242 13 242
13 0 15 -33 15 -246z m-80 -4 l0 -210 -290 0 -290 0 0 210 0 210 290 0 290 0
0 -210z m280 160 l0 -50 -75 0 -75 0 0 50 0 50 75 0 75 0 0 -50z m-42 -136
c12 -8 22 -22 22 -31 0 -21 -29 -53 -48 -53 -22 0 -52 30 -52 51 0 16 34 49
50 49 3 0 16 -7 28 -16z m-3 -150 c19 -20 16 -43 -7 -58 -21 -13 -51 2 -56 26
-3 16 23 48 38 48 5 0 16 -7 25 -16z"/>
<path d="M1480 1660 l0 -870 655 0 655 0 0 870 0 870 -655 0 -655 0 0 -870z
m1198 778 c9 -9 12 -70 12 -215 0 -190 -1 -203 -19 -213 -15 -7 -23 -6 -35 6
-13 13 -16 46 -16 205 0 112 4 198 10 210 12 22 30 25 48 7z"/>
<path d="M77 2233 c-4 -3 -7 -69 -7 -145 l0 -138 628 2 627 3 3 129 c2 86 -1
133 -9 142 -10 12 -113 14 -624 14 -336 0 -615 -3 -618 -7z m688 -67 c67 -67
22 -172 -72 -169 -50 1 -93 48 -93 99 0 81 108 127 165 70z m483 -55 l3 -61
-96 0 -95 0 0 58 c0 32 2 61 4 63 2 2 44 3 93 2 l88 -1 3 -61z m-900 -23 l3
-38 -100 0 -101 0 0 33 c0 19 3 37 7 41 4 4 48 5 98 4 l90 -3 3 -37z m747 -68
c3 -5 -3 -10 -14 -10 -12 0 -21 5 -21 10 0 6 6 10 14 10 8 0 18 -4 21 -10z
m55 0 c0 -5 -9 -10 -20 -10 -11 0 -20 5 -20 10 0 6 9 10 20 10 11 0 20 -4 20
-10z m50 0 c0 -5 -7 -10 -15 -10 -8 0 -15 5 -15 10 0 6 7 10 15 10 8 0 15 -4
15 -10z m50 0 c0 -5 -7 -10 -15 -10 -8 0 -15 5 -15 10 0 6 7 10 15 10 8 0 15
-4 15 -10z"/>
<path d="M654 2152 c-6 -4 -17 -18 -23 -30 -15 -29 1 -77 30 -93 25 -13 24 3
-1 19 -13 8 -20 23 -20 42 0 17 9 39 20 50 20 20 16 27 -6 12z"/>
<path d="M2937 2153 c-4 -3 -7 -66 -7 -140 l0 -133 820 0 820 0 0 140 0 140
-813 0 c-448 0 -817 -3 -820 -7z m1033 -138 l0 -75 -220 0 -220 0 0 75 0 75
220 0 220 0 0 -75z m-604 30 c21 -32 7 -69 -30 -87 -55 -25 -104 51 -64 100 6
6 26 12 44 12 25 0 38 -7 50 -25z m858 9 c34 -33 4 -104 -44 -104 -26 0 -60
34 -60 62 0 49 69 78 104 42z"/>
<path d="M70 1278 c0 -369 4 -619 10 -628 8 -13 88 -15 605 -18 405 -2 602 1
615 8 20 10 20 23 20 630 l0 620 -625 0 -625 0 0 -612z m721 438 c214 -46 369
-235 369 -451 0 -276 -259 -501 -526 -457 -131 22 -269 113 -331 220 -83 141
-83 333 0 474 60 103 198 197 317 217 79 13 97 12 171 -3z m469 -961 l0 -56
-77 3 -78 3 -3 39 c-5 63 -1 66 83 66 l75 0 0 -55z"/>
<path d="M571 1620 c-174 -64 -278 -247 -241 -425 7 -33 21 -78 32 -99 33 -65
112 -141 181 -172 55 -26 73 -29 157 -29 88 0 101 3 162 33 287 141 281 546
-10 680 -78 36 -203 41 -281 12z m208 -96 c109 -32 191 -144 191 -259 0 -197
-216 -334 -388 -246 -102 52 -152 132 -152 243 0 132 68 224 193 264 57 17 93
17 156 -2z"/>
<path d="M2940 1315 l0 -515 810 0 810 0 0 515 0 515 -153 0 c-141 0 -155 -2
-172 -20 -18 -19 -31 -20 -485 -20 -454 0 -467 1 -485 20 -17 18 -31 20 -172
20 l-153 0 0 -515z m1430 370 l0 -35 -620 0 -620 0 0 35 0 35 620 0 620 0 0
-35z m-70 -450 l0 -335 -550 0 -550 0 0 335 0 335 550 0 550 0 0 -335z"/>
<path d="M3653 1313 c53 -2 141 -2 195 0 53 1 9 3 -98 3 -107 0 -151 -2 -97
-3z"/>
<path d="M2936 744 c-11 -28 -6 -81 8 -93 10 -8 231 -10 817 -9 l804 3 0 55 0
55 -811 3 c-734 2 -812 1 -818 -14z"/>
<path d="M1487 733 c-4 -3 -7 -32 -7 -64 l0 -58 58 -3 c36 -2 57 -7 58 -15 1
-7 2 -18 3 -24 0 -6 17 -9 39 -7 30 2 38 7 40 26 l3 22 449 0 449 0 3 -22 c3
-20 9 -23 43 -23 34 0 40 3 43 23 3 20 9 22 63 22 l60 0 -3 63 -3 62 -646 3
c-355 1 -649 -1 -652 -5z"/>
</g>
</svg>
